<svg xmlns="http://www.w3.org/2000/svg" width="1200" height="630" viewBox="0 0 1200 630" role="img" aria-label="Cloud Fundamentals track">
  <defs>
    <linearGradient id="bg" x1="0" y1="0" x2="1" y2="1">
      <stop offset="0" stop-color="#021a2e"/><stop offset="0.55" stop-color="#03263f"/><stop offset="1" stop-color="#053154"/>
    </linearGradient>
    <linearGradient id="accent" x1="0" y1="0" x2="1" y2="0">
      <stop offset="0" stop-color="#0ea5e9"/><stop offset="1" stop-color="#22d3ee"/>
    </linearGradient>
  </defs>
  <rect width="1200" height="630" fill="url(#bg)"/>
  <rect width="1200" height="8" fill="url(#accent)"/>
  <g transform="translate(80,70)">
    <rect width="52" height="52" rx="12" fill="#0284c7"/>
    <text x="26" y="35" font-family="system-ui,sans-serif" font-size="24" font-weight="800" fill="#fff" text-anchor="middle">TT</text>
    <text x="70" y="24" font-family="system-ui,sans-serif" font-size="20" font-weight="700" fill="#e2e8f0">botera</text>
    <text x="70" y="46" font-family="system-ui,sans-serif" font-size="15" fill="#38bdf8" letter-spacing="2">INFRASTRUCTURE CURRICULUM</text>
  </g>
  <g transform="translate(80,210)">
    <text font-family="system-ui,sans-serif" font-size="24" font-weight="700" fill="#38bdf8" letter-spacing="3">TRACK · BEGINNER → ADVANCED</text>
    <text y="74" font-family="system-ui,sans-serif" font-size="64" font-weight="800" fill="#ffffff">Cloud Fundamentals</text>
    <text y="128" font-family="system-ui,sans-serif" font-size="22" fill="#94a3b8">compute · storage · networking · IAM · serverless · cost</text>
    <g transform="translate(0,168)" font-family="system-ui,sans-serif" font-size="17" font-weight="600">
      <rect width="180" height="34" rx="17" fill="#075985"/><text x="90" y="22" fill="#bae6fd" text-anchor="middle">Shared responsibility</text>
      <rect x="196" width="150" height="34" rx="17" fill="#1e293b"/><text x="271" y="22" fill="#cbd5e1" text-anchor="middle">Pay as you go</text>
    </g>
  </g>
  <g transform="translate(850,210)">
    <path d="M70 120 a45 45 0 0 1 8 -89 a55 55 0 0 1 104 18 a40 40 0 0 1 -6 79 z"
          fill="#053154" stroke="#22d3ee" stroke-width="4"/>
    <g fill="#38bdf8">
      <circle cx="95" cy="70" r="7"/><circle cx="130" cy="60" r="7"/><circle cx="160" cy="72" r="7"/>
    </g>
    <g stroke="#7dd3fc" stroke-width="3">
      <line x1="95" y1="140" x2="95" y2="170"/>
      <line x1="130" y1="140" x2="130" y2="180"/>
      <line x1="160" y1="140" x2="160" y2="170"/>
    </g>
    <g fill="#03263f" stroke="#0ea5e9" stroke-width="3">
      <rect x="78" y="172" width="34" height="26" rx="4"/>
      <rect x="113" y="182" width="34" height="26" rx="4"/>
      <rect x="148" y="172" width="34" height="26" rx="4"/>
    </g>
  </g>
  <text x="80" y="585" font-family="system-ui,sans-serif" font-size="18" font-weight="600" fill="#64748b">botera.md/linux-tutorials</text>
</svg>
