<svg xmlns="http://www.w3.org/2000/svg" width="1200" height="630" viewBox="0 0 1200 630" role="img" aria-label="Configuration Management (Ansible) track">
  <defs>
    <linearGradient id="bg" x1="0" y1="0" x2="1" y2="1">
      <stop offset="0" stop-color="#1a0505"/><stop offset="0.55" stop-color="#220909"/><stop offset="1" stop-color="#1a0a14"/>
    </linearGradient>
    <linearGradient id="accent" x1="0" y1="0" x2="1" y2="0">
      <stop offset="0" stop-color="#ee0000"/><stop offset="1" stop-color="#f97316"/>
    </linearGradient>
  </defs>
  <rect width="1200" height="630" fill="url(#bg)"/>
  <rect width="1200" height="8" fill="url(#accent)"/>
  <g transform="translate(80,70)">
    <rect width="52" height="52" rx="12" fill="#cc0000"/>
    <text x="26" y="35" font-family="system-ui,sans-serif" font-size="24" font-weight="800" fill="#fff" text-anchor="middle">TT</text>
    <text x="70" y="24" font-family="system-ui,sans-serif" font-size="20" font-weight="700" fill="#e2e8f0">botera</text>
    <text x="70" y="46" font-family="system-ui,sans-serif" font-size="15" fill="#fb923c" letter-spacing="2">INFRASTRUCTURE CURRICULUM</text>
  </g>
  <g transform="translate(80,210)">
    <text font-family="system-ui,sans-serif" font-size="24" font-weight="700" fill="#fb923c" letter-spacing="3">TRACK · INTERMEDIATE → ADVANCED</text>
    <text y="74" font-family="system-ui,sans-serif" font-size="56" font-weight="800" fill="#ffffff">Configuration Management</text>
    <text y="128" font-family="system-ui,sans-serif" font-size="22" fill="#94a3b8">Ansible · playbooks · roles · inventory · idempotency · automation</text>
    <g transform="translate(0,168)" font-family="system-ui,sans-serif" font-size="17" font-weight="600">
      <rect width="190" height="34" rx="17" fill="#7f1d1d"/><text x="95" y="22" fill="#fecaca" text-anchor="middle">Agentless · SSH</text>
      <rect x="206" width="160" height="34" rx="17" fill="#1e293b"/><text x="286" y="22" fill="#cbd5e1" text-anchor="middle">Idempotent</text>
    </g>
  </g>
  <g transform="translate(820,160)">
    <circle cx="120" cy="60" r="34" fill="#cc0000"/>
    <text x="120" y="68" font-family="system-ui,sans-serif" font-size="20" font-weight="800" fill="#fff" text-anchor="middle">CTL</text>
    <g stroke="#fb923c" stroke-width="3">
      <line x1="120" y1="94" x2="40"  y2="200"/>
      <line x1="120" y1="94" x2="120" y2="200"/>
      <line x1="120" y1="94" x2="200" y2="200"/>
    </g>
    <g fill="#220909" stroke="#f97316" stroke-width="3">
      <rect x="10"  y="200" width="60" height="60" rx="8"/>
      <rect x="90"  y="200" width="60" height="60" rx="8"/>
      <rect x="170" y="200" width="60" height="60" rx="8"/>
    </g>
    <g font-family="ui-monospace,monospace" font-size="11" fill="#fdba74" text-anchor="middle">
      <text x="40"  y="234">node</text><text x="120" y="234">node</text><text x="200" y="234">node</text>
    </g>
  </g>
  <text x="80" y="585" font-family="system-ui,sans-serif" font-size="18" font-weight="600" fill="#64748b">botera.md/linux-tutorials</text>
</svg>
