<svg xmlns="http://www.w3.org/2000/svg" width="1200" height="630" viewBox="0 0 1200 630" role="img" aria-label="Databases track">
  <defs>
    <linearGradient id="bg" x1="0" y1="0" x2="1" y2="1">
      <stop offset="0" stop-color="#06231a"/><stop offset="0.55" stop-color="#072c2a"/><stop offset="1" stop-color="#06283a"/>
    </linearGradient>
    <linearGradient id="accent" x1="0" y1="0" x2="1" y2="0">
      <stop offset="0" stop-color="#10b981"/><stop offset="1" stop-color="#0891b2"/>
    </linearGradient>
  </defs>
  <rect width="1200" height="630" fill="url(#bg)"/>
  <rect width="1200" height="8" fill="url(#accent)"/>
  <g transform="translate(80,70)">
    <rect width="52" height="52" rx="12" fill="#059669"/>
    <text x="26" y="35" font-family="system-ui,sans-serif" font-size="24" font-weight="800" fill="#fff" text-anchor="middle">TT</text>
    <text x="70" y="24" font-family="system-ui,sans-serif" font-size="20" font-weight="700" fill="#e2e8f0">botera</text>
    <text x="70" y="46" font-family="system-ui,sans-serif" font-size="15" fill="#34d399" letter-spacing="2">INFRASTRUCTURE CURRICULUM</text>
  </g>
  <g transform="translate(80,210)">
    <text font-family="system-ui,sans-serif" font-size="24" font-weight="700" fill="#34d399" letter-spacing="3">TRACK · INTERMEDIATE → SENIOR</text>
    <text y="74" font-family="system-ui,sans-serif" font-size="56" font-weight="800" fill="#ffffff">Databases &amp; Data Infra</text>
    <text y="128" font-family="system-ui,sans-serif" font-size="22" fill="#94a3b8">SQL · NoSQL · indexing · transactions · replication · scaling</text>
    <g transform="translate(0,168)" font-family="system-ui,sans-serif" font-size="17" font-weight="600">
      <rect width="160" height="34" rx="17" fill="#065f46"/><text x="80" y="22" fill="#a7f3d0" text-anchor="middle">ACID &amp; BASE</text>
      <rect x="176" width="170" height="34" rx="17" fill="#1e293b"/><text x="261" y="22" fill="#cbd5e1" text-anchor="middle">Query &amp; scale</text>
    </g>
  </g>
  <g transform="translate(880,180)">
    <g fill="#072c2a" stroke="#10b981" stroke-width="4">
      <ellipse cx="110" cy="30"  rx="90" ry="26"/>
      <path d="M20 30 v60 a90 26 0 0 0 180 0 v-60"/>
      <path d="M20 90 v60 a90 26 0 0 0 180 0 v-60"/>
      <path d="M20 150 v60 a90 26 0 0 0 180 0 v-60"/>
    </g>
    <g stroke="#34d399" stroke-width="3" fill="none">
      <ellipse cx="110" cy="90"  rx="90" ry="26"/>
      <ellipse cx="110" cy="150" rx="90" ry="26"/>
    </g>
  </g>
  <text x="80" y="585" font-family="system-ui,sans-serif" font-size="18" font-weight="600" fill="#64748b">botera.md/linux-tutorials</text>
</svg>
