<svg xmlns="http://www.w3.org/2000/svg" width="1200" height="630" viewBox="0 0 1200 630" role="img" aria-label="Git & Version Control track">
  <defs>
    <linearGradient id="bg" x1="0" y1="0" x2="1" y2="1">
      <stop offset="0" stop-color="#1a0f02"/><stop offset="0.55" stop-color="#1b1410"/><stop offset="1" stop-color="#0d0b14"/>
    </linearGradient>
    <linearGradient id="accent" x1="0" y1="0" x2="1" y2="0">
      <stop offset="0" stop-color="#f1502f"/><stop offset="1" stop-color="#f59e0b"/>
    </linearGradient>
  </defs>
  <rect width="1200" height="630" fill="url(#bg)"/>
  <rect width="1200" height="8" fill="url(#accent)"/>
  <g transform="translate(80,70)">
    <rect width="52" height="52" rx="12" fill="#f1502f"/>
    <text x="26" y="35" font-family="system-ui,sans-serif" font-size="24" font-weight="800" fill="#fff" text-anchor="middle">TT</text>
    <text x="70" y="24" font-family="system-ui,sans-serif" font-size="20" font-weight="700" fill="#e2e8f0">botera</text>
    <text x="70" y="46" font-family="system-ui,sans-serif" font-size="15" fill="#f59e0b" letter-spacing="2">INFRASTRUCTURE CURRICULUM</text>
  </g>
  <g transform="translate(80,210)">
    <text font-family="system-ui,sans-serif" font-size="24" font-weight="700" fill="#f59e0b" letter-spacing="3">TRACK · BEGINNER → ADVANCED</text>
    <text y="74" font-family="system-ui,sans-serif" font-size="64" font-weight="800" fill="#ffffff">Git &amp; Version Control</text>
    <text y="128" font-family="system-ui,sans-serif" font-size="22" fill="#94a3b8">commits · branches · merge · rebase · remotes · pull requests</text>
    <g transform="translate(0,168)" font-family="system-ui,sans-serif" font-size="17" font-weight="600">
      <rect width="180" height="34" rx="17" fill="#7c2d12"/><text x="90" y="22" fill="#fed7aa" text-anchor="middle">Branch &amp; merge</text>
      <rect x="196" width="150" height="34" rx="17" fill="#1e293b"/><text x="271" y="22" fill="#cbd5e1" text-anchor="middle">Team workflow</text>
    </g>
  </g>
  <g transform="translate(820,150)" stroke-width="6" fill="none">
    <line x1="40" y1="20" x2="40" y2="300" stroke="#3f3f46"/>
    <line x1="160" y1="120" x2="160" y2="260" stroke="#3f3f46"/>
    <path d="M40 120 Q40 120 160 120" stroke="#f59e0b"/>
    <path d="M160 200 Q160 260 40 260" stroke="#f1502f"/>
    <circle cx="40" cy="20" r="16" fill="#0d0b14" stroke="#f1502f"/>
    <circle cx="40" cy="120" r="16" fill="#0d0b14" stroke="#f1502f"/>
    <circle cx="160" cy="120" r="16" fill="#0d0b14" stroke="#f59e0b"/>
    <circle cx="160" cy="200" r="16" fill="#0d0b14" stroke="#f59e0b"/>
    <circle cx="40" cy="200" r="16" fill="#0d0b14" stroke="#f1502f"/>
    <circle cx="40" cy="280" r="16" fill="#0d0b14" stroke="#f1502f"/>
  </g>
  <text x="80" y="585" font-family="system-ui,sans-serif" font-size="18" font-weight="600" fill="#64748b">botera.md/linux-tutorials</text>
</svg>
