<svg xmlns="http://www.w3.org/2000/svg" width="1200" height="630" viewBox="0 0 1200 630" role="img" aria-label="Infrastructure as Code (Terraform) track">
  <defs>
    <linearGradient id="bg" x1="0" y1="0" x2="1" y2="1">
      <stop offset="0" stop-color="#0e0726"/><stop offset="0.55" stop-color="#170d33"/><stop offset="1" stop-color="#1d1147"/>
    </linearGradient>
    <linearGradient id="accent" x1="0" y1="0" x2="1" y2="0">
      <stop offset="0" stop-color="#7b42bc"/><stop offset="1" stop-color="#a855f7"/>
    </linearGradient>
  </defs>
  <rect width="1200" height="630" fill="url(#bg)"/>
  <rect width="1200" height="8" fill="url(#accent)"/>
  <g transform="translate(80,70)">
    <rect width="52" height="52" rx="12" fill="#7b42bc"/>
    <text x="26" y="35" font-family="system-ui,sans-serif" font-size="24" font-weight="800" fill="#fff" text-anchor="middle">TT</text>
    <text x="70" y="24" font-family="system-ui,sans-serif" font-size="20" font-weight="700" fill="#e2e8f0">botera</text>
    <text x="70" y="46" font-family="system-ui,sans-serif" font-size="15" fill="#c084fc" letter-spacing="2">INFRASTRUCTURE CURRICULUM</text>
  </g>
  <g transform="translate(80,210)">
    <text font-family="system-ui,sans-serif" font-size="24" font-weight="700" fill="#c084fc" letter-spacing="3">TRACK · INTERMEDIATE → ADVANCED</text>
    <text y="74" font-family="system-ui,sans-serif" font-size="58" font-weight="800" fill="#ffffff">Infrastructure as Code</text>
    <text y="128" font-family="system-ui,sans-serif" font-size="22" fill="#94a3b8">Terraform · providers · state · modules · plan/apply · workflows</text>
    <g transform="translate(0,168)" font-family="system-ui,sans-serif" font-size="17" font-weight="600">
      <rect width="200" height="34" rx="17" fill="#4c1d95"/><text x="100" y="22" fill="#ddd6fe" text-anchor="middle">Declarative infra</text>
      <rect x="216" width="150" height="34" rx="17" fill="#1e293b"/><text x="291" y="22" fill="#cbd5e1" text-anchor="middle">plan → apply</text>
    </g>
  </g>
  <g transform="translate(840,180)" fill="none" stroke-width="0">
    <rect x="60"  y="0"   width="44" height="44" rx="6" fill="#7b42bc"/>
    <rect x="10"  y="60"  width="44" height="44" rx="6" fill="#a855f7"/>
    <rect x="60"  y="60"  width="44" height="44" rx="6" fill="#a855f7"/>
    <rect x="60"  y="120" width="44" height="44" rx="6" fill="#7b42bc"/>
    <rect x="110" y="120" width="44" height="44" rx="6" fill="#c084fc"/>
    <rect x="60"  y="180" width="44" height="44" rx="6" fill="#a855f7"/>
    <g stroke="#c084fc" stroke-width="4">
      <line x1="82" y1="44" x2="82" y2="60"/>
      <line x1="82" y1="104" x2="82" y2="120"/>
      <line x1="82" y1="82" x2="54" y2="82"/>
      <line x1="104" y1="142" x2="110" y2="142"/>
      <line x1="82" y1="164" x2="82" y2="180"/>
    </g>
  </g>
  <text x="80" y="585" font-family="system-ui,sans-serif" font-size="18" font-weight="600" fill="#64748b">botera.md/linux-tutorials</text>
</svg>
