<svg xmlns="http://www.w3.org/2000/svg" width="1200" height="630" viewBox="0 0 1200 630" role="img" aria-label="Kubernetes track">
  <defs>
    <linearGradient id="bg" x1="0" y1="0" x2="1" y2="1">
      <stop offset="0" stop-color="#0a0f2c"/><stop offset="0.55" stop-color="#0d1840"/><stop offset="1" stop-color="#101a4d"/>
    </linearGradient>
    <linearGradient id="accent" x1="0" y1="0" x2="1" y2="0">
      <stop offset="0" stop-color="#326ce5"/><stop offset="1" stop-color="#6ea8fe"/>
    </linearGradient>
  </defs>
  <rect width="1200" height="630" fill="url(#bg)"/>
  <rect width="1200" height="8" fill="url(#accent)"/>
  <g transform="translate(80,70)">
    <rect width="52" height="52" rx="12" fill="#326ce5"/>
    <text x="26" y="35" font-family="system-ui,sans-serif" font-size="24" font-weight="800" fill="#fff" text-anchor="middle">TT</text>
    <text x="70" y="24" font-family="system-ui,sans-serif" font-size="20" font-weight="700" fill="#e2e8f0">botera</text>
    <text x="70" y="46" font-family="system-ui,sans-serif" font-size="15" fill="#6ea8fe" letter-spacing="2">INFRASTRUCTURE CURRICULUM</text>
  </g>
  <g transform="translate(80,210)">
    <text font-family="system-ui,sans-serif" font-size="24" font-weight="700" fill="#6ea8fe" letter-spacing="3">TRACK · INTERMEDIATE → EXPERT</text>
    <text y="74" font-family="system-ui,sans-serif" font-size="64" font-weight="800" fill="#ffffff">Kubernetes</text>
    <text y="128" font-family="system-ui,sans-serif" font-size="22" fill="#94a3b8">pods · deployments · services · config · storage · RBAC · Helm</text>
    <g transform="translate(0,168)" font-family="system-ui,sans-serif" font-size="17" font-weight="600">
      <rect width="200" height="34" rx="17" fill="#1e3a8a"/><text x="100" y="22" fill="#bfdbfe" text-anchor="middle">Declarative &amp; self-healing</text>
      <rect x="216" width="150" height="34" rx="17" fill="#1e293b"/><text x="291" y="22" fill="#cbd5e1" text-anchor="middle">Orchestration</text>
    </g>
  </g>
  <g transform="translate(910,290)" stroke="#6ea8fe" stroke-width="6" fill="none">
    <polygon points="0,-130 112,-65 112,65 0,130 -112,65 -112,-65" stroke="#326ce5" fill="#0d1840"/>
    <polygon points="0,-70 60,-35 60,35 0,70 -60,35 -60,-35" stroke="#6ea8fe"/>
    <g stroke="#6ea8fe" stroke-width="5">
      <line x1="0" y1="-70" x2="0" y2="-130"/>
      <line x1="60" y1="-35" x2="112" y2="-65"/>
      <line x1="60" y1="35" x2="112" y2="65"/>
      <line x1="0" y1="70" x2="0" y2="130"/>
      <line x1="-60" y1="35" x2="-112" y2="65"/>
      <line x1="-60" y1="-35" x2="-112" y2="-65"/>
    </g>
  </g>
  <text x="80" y="585" font-family="system-ui,sans-serif" font-size="18" font-weight="600" fill="#64748b">botera.md/linux-tutorials</text>
</svg>
